<svg id="logo" width="35vw" height="100%" viewBox="0 0 88 88" fill="none" xmlns="http://www.w3.org/2000/svg"><path fill-rule="evenodd" clip-rule="evenodd" d="M34.6432 4.99942C34.985 5.71242 34.5908 6.79087 35.5911 6.79087H35.8012C35.9734 6.79087 36.1165 6.72792 36.1165 6.58082 36.1165 5.92293 35.4962 5.28025 35.1723 4.7985l-.5291.20092z" fill="#004098"/><path fill-rule="evenodd" clip-rule="evenodd" d="M36.7474 5.31956l1.2613.52544C37.7044 6.29957 36.7113 7.07184 36.1979 7.60798 36.009 7.80521 34.7503 9.59307 34.7503 9.73409 34.7503 10.7499 35.352 10.9075 36.1167 10.8905 36.1551 9.16459 36.7539 8.7737 37.4621 7.71618 38.1075 6.75211 39.0522 5.7133 39.965 7.38281L38.7445 8.47278C38.5961 8.39932 38.5699 8.36771 38.3241 8.36771H38.0087C37.3556 8.36771 37.1635 9.21841 37.273 9.73409 37.7804 9.59851 37.8899 9.07832 38.2606 9.03057 38.798 8.96108 38.3241 9.68026 38.3241 10.1545v.1053C38.3241 10.5124 38.4944 10.5686 38.6431 10.7948l-1.8957.7263C36.9033 11.7338 36.9888 11.8365 37.3781 11.8365H37.6934C37.9329 11.8365 38.6559 11.5099 39.0598 11.4159 38.9728 12.4601 37.4846 12.0946 37.273 12.8876 38.4777 12.9142 39.3581 13.4809 40.0066 12.2566L39.698 11.0151 40.0058 10.8905C40.3015 10.9592 40.5398 11.1006 40.8465 11.1006 40.9745 11.1006 41.1619 10.8831 41.1619 10.6802 41.1619 10.3575 41.0647 10.0495 40.7415 10.0495L39.3981 10.0555 39.2722 10.464 38.8894 10.3306 39.3702 9.4198 39.268 8.77527 40.0058 8.6831C40.2451 8.32568 40.7415 8.22586 40.7415 7.84208V7.63203c0-.6871-.727400000000003-1.2896-1.1581-1.55476L38.7445 5.95026c.3506-.52351 1.5767-.72443 1.5767-1.26131.0-.36922-.4664-.42037-.841099999999997-.42037H39.0598C38.7564 4.26858 38.0508 5.29062 36.7474 5.31956z" fill="#004098"/><path fill-rule="evenodd" clip-rule="evenodd" d="M25.5007 8.47268C25.5007 9.02338 26.2911 9.75887 26.3284 10.4146L25.4861 10.1486C25.1064 10.3911 24.8199 10.6466 25.1854 10.9954 25.6658 11.317 25.8506 11.282 25.7111 11.9414 25.4476 11.88 24.8854 11.6261 24.7651 11.6261 24.5999 11.6261 24.2258 11.7842 24.2124 11.9438L24.3807 13.6597 22.978 14.9895C23.2878 13.6597 23.924 12.5335 23.924 10.8904v-.2103C23.924 10.0504 22.978 10.6325 22.978 10.7851c0 .312200000000001.2103.2811.2103.7357v.2103C23.1883 12.7819 21.9705 15.8306 22.873 15.8306 23.2458 15.8306 23.6526 15.0834 23.924 14.8846 23.7685 15.6187 23.2959 18.353 24.4497 18.353c.665099999999999.0 1.0184-1.0904 1.156-1.6817C26.0817 16.7985 26.3328 17.407 26.8671 17.407 27.0393 17.407 27.1825 17.3443 27.1825 17.1969c0-.5246-1.0657-.680199999999999-1.2766-1.7797C25.7827 14.7745 26.0708 14.7157 26.0084 14.1747 25.9574 13.7311 25.816 13.3765 25.816 12.7821c0-.2837.0503-.2896.1051-.5253L26.2043 12.2474l.2424 1.7961C26.4178 14.0984 26.1314 14.6742 26.1314 14.6742c0 .2646.5991 1.1564.735700000000001 1.1564.540599999999998.0 1.4484-1.4718 1.5767-1.4718C28.8904 14.3588 29.1931 15.2853 29.4745 15.6406 29.9782 16.2767 30.1407 16.3257 30.8613 16.6713 30.8083 16.0346 30.5109 14.8484 30.2938 14.2956 30.0286 13.6206 29.5061 12.7561 29.3475 12.2241l1.2042-1.4422-.2179-.4392L29.4949 10.4698C28.8509 9.59057 28.1329 10.2025 27.7692 9.35757 27.5216 8.78144 26.6895 8.26263 25.9211 8.26263H25.816C25.6439 8.26263 25.5007 8.32558 25.5007 8.47268zM25.2016 14.3657C25.2016 14.0472 24.9892 13.8081 25.1749 13.7287 25.3607 13.6491 25.4404 13.4103 25.5731 13.4366 25.7058 13.4632 25.7058 13.7818 25.6262 13.9941 25.5464 14.2063 25.4404 14.5514 25.4404 14.5514S25.2016 14.6839 25.2016 14.3657zM24.83 13.1184C24.8565 13.3305 25.1749 13.1978 25.1749 12.9326 25.1749 12.6672 25.0688 12.5078 24.9361 12.6672 24.8034 12.8263 24.8034 12.906 24.83 13.1184zm0 2.4148C24.6443 15.5332 24.6973 16.5417 24.8831 16.5681 25.0688 16.5947 25.0688 16.1702 25.1749 16.0108 25.2813 15.8517 25.0158 15.5332 24.83 15.5332zm2.5743-1.6984C27.2185 13.7021 27.3776 13.543 27.6164 13.3305 27.8552 13.1184 28.0146 13.3042 27.8552 13.5163 27.6961 13.7287 27.5901 13.9675 27.4043 13.8348zM26.678 11.549C26.6451 11.4831 26.7106 11.3515 26.9081 11.3188 27.1054 11.2856 27.1054 11.3515 26.941 11.5817 26.7765 11.8121 26.7106 11.6148 26.678 11.549zM28.8068 11.4207 28.9711 11.2235l.1645.1972S29.1686 11.4863 28.9711 11.5194C28.7738 11.5522 28.8397 11.3878 28.8068 11.4207z" fill="#004098"/><path fill-rule="evenodd" clip-rule="evenodd" d="M71.2237 20.0349C70.4946 20.0349 69.9916 18.7108 69.647 18.4585 69.3968 18.6419 69.3317 18.8629 69.3317 19.2992v.2103C69.3317 20.06 71.2298 20.8759 68.8061 20.8759 68.4857 20.8759 68.1779 20.2452 67.6499 20.2452 67.4078 20.2452 67.3346 20.3184 67.3346 20.5605v.1051C67.3346 21.1969 67.7137 21.7167 68.2806 21.7167H68.8061C69.5543 21.7167 70.3046 21.3499 70.8031 21.0863 71.341 21.344 71.6912 21.4282 72.2124 21.7791 72.4088 21.9118 73.4611 22.6627 73.5362 22.6627H73.6411C73.8768 22.6627 73.8718 22.5795 74.0676 22.45 74.0754 21.9144 73.7556 21.6511 73.4622 21.209 73.3799 21.0851 73.394 20.7277 73.3031 20.6136L73.3549 20.5097 72.9324 21.1387 72.9522 21.2751 72.0644 20.5605C72.426 20.0668 74.0615 19.479 74.0615 18.5635 74.0615 18.2218 73.9704 18.4841 73.8512 18.0378H73.5362C73.3052 18.0378 72.1301 20.0349 71.2237 20.0349zm-2.3124 4.3095V24.8701C69.2875 24.9578 69.405 25.0804 69.857 25.0804 70.2482 25.0804 70.5112 24.2827 70.5876 23.9183 70.7908 22.9482 70.5562 23.1701 70.4875 22.3484 70.2072 21.8178 69.9271 21.9314 69.647 22.1372 69.5543 22.5352 69.5605 23.0399 69.4286 23.3902 69.3181 23.6832 68.9113 24.1346 68.9113 24.3444z" fill="#004098"/><path fill-rule="evenodd" clip-rule="evenodd" d="M14.0436 19.0887c0-.994899999999998 1.0203-2.1724 1.6817-2.5225C16.9164 17.1963 20.5605 19.965 20.5605 21.5064 20.5605 22.1392 19.8354 22.1405 19.4041 22.3471L19.5223 22.7636 18.6972 23.2412 18.8939 23.4907C18.5986 23.9215 18.2502 24.6596 17.6173 24.6596H17.302C17.1871 24.229 15.0946 22.426 15.0946 21.7165 15.0946 21.4662 15.6052 20.4914 16.0406 20.4554V20.7707C16.0406 21.2731 15.8865 21.8011 15.7253 22.1371 15.8011 22.4156 15.9617 22.6374 16.2071 22.8031L17.197 22.4525 17.097 23.0839C17.4026 23.2475 17.6408 23.5035 18.0377 23.5035 18.8622 23.5035 18.9989 20.6623 19.194 19.8247 19.0739 19.6454 18.9652 19.404 18.6684 19.404 17.4104 19.404 17.9165 20.215 16.5664 20.2451 16.4811 19.8798 16.1379 19.0887 15.7253 19.0887H15.5153C14.8862 19.0887 14.8133 20.5946 14.6743 21.1911 14.1462 20.8376 14.0436 19.9587 14.0436 19.0887zm-1.0511 1.4717c0 1.7484 1.3021 2.0235 2.1836 2.8616C16.2243 24.4189 16.1329 25.8833 17.8117 25.9176L17.9327 25.2903H18.3531c.3676.0 1.0068-.975299999999997 1.1555-1.262C19.968 23.143 19.72 23.1881 21.1911 23.1881 22.8441 20.7195 21.1672 20.4632 19.9298 18.9837 19.262 18.1853 17.2116 15.9355 15.9357 15.9355c-1.406.0-2.9432 2.997-2.9432 4.6249zM18.2611 20.4666S18.1764 20.2636 18.3628 20.2466C18.5488 20.2297 18.6504 20.3483 18.6504 20.4836S18.6164 20.6358 18.4644 20.6189C18.3121 20.6019 18.2611 20.4666 18.2611 20.4666z" fill="#004098"/><path fill-rule="evenodd" clip-rule="evenodd" d="M44.9461 26.867C44.8076 26.2729 44.4204 26.0331 44.4204 25.2903 44.4204 24.6186 45.8626 24.3442 46.6278 24.3442L47.2609 24.32l1.5743.1296C47.8344 23.8145 41.7741 22.9779 39.7956 22.9779 39.9006 23.1211 42.1143 24.4227 42.5459 24.7474 43.3495 25.352 44.2882 26.4266 44.9461 26.867z" fill="#004098"/><path fill-rule="evenodd" clip-rule="evenodd" d="M79.7374 26.867C79.4733 27.0442 79.0017 27.5121 79.0017 27.9181 79.0017 28.1992 79.1535 28.229 79.3171 28.3387 80.062 28.1649 80.5682 27.7279 81.0652 27.2477 82.0407 26.305 80.4449 26.867 79.7374 26.867zm-5.1056 2.8917L75.0204 30.0243 74.9025 30.4408C74.9872 30.4996 75.162 30.6511 75.2178 30.6511 76.2802 30.6511 75.6806 30.1275 76.479 29.7051 76.879 29.8968 77.4352 30.0227 77.8046 30.2715 78.2994 30.6043 78.4664 30.9589 78.7648 31.1809L78.9192 31.9349 78.5814 32.2276C78.2193 32.036 77.8135 31.9107 77.5015 31.6256 77.2743 31.4181 76.9093 30.8612 76.5843 30.8612H76.479C76.3071 30.8612 76.1639 30.9241 76.1639 31.0715 76.1639 31.5922 76.625 31.2776 76.7943 31.9123 75.9107 31.9859 76.0338 31.8566 75.3229 32.3328 75.0167 31.7545 74.6486 31.7667 74.2899 31.1585 73.949 30.5811 74.0171 30.062 73.2206 30.2305c0 1.8536 1.3943 1.909 1.4716 2.8381C73.0632 33.0686 73.2798 31.9127 73.0105 30.7561 72.6134 31.0221 72.4848 31.4681 72.4848 32.1226 72.4848 32.9604 73.5453 34.0146 73.9565 34.0146 74.2079 34.0146 74.71 33.6177 74.9025 33.489 75.4258 33.8396 76.0566 34.9606 76.2689 34.9606 76.5916 34.9606 76.8996 34.8632 76.8996 34.5399V34.435c0-.811-1.1563-1.1658-1.1563-1.5767C75.7433 32.3167 76.2875 32.6482 76.7943 32.6482H77.1097C77.5144 32.6482 77.5423 32.59 77.6353 32.3328 78.0779 32.451 78.2051 33.0686 78.6864 33.0686H78.7914C79.2484 33.0686 79.5274 32.278 79.5274 31.8072 79.5274 31.0853 79.338 30.9129 79.2121 30.4408 79.555 30.6224 80.0057 30.7755 80.2937 31.0409 80.5632 31.2899 80.8314 31.9123 81.2092 31.9123H81.3141C81.607 31.9123 82.0498 31.4694 82.0498 31.1765c0-1.0134-1.3805-.8536-1.342-1.7865l-.0244-1.0513C80.1931 28.3795 80.0429 29.0384 79.7102 29.406L80.1581 30.1254C78.8985 29.7892 77.0467 28.9171 75.8885 28.2833l-1.2567 1.4754z" fill="#004098"/><path fill-rule="evenodd" clip-rule="evenodd" d="M8.99808 29.4948 7.84175 29.0744c-.34277.1646-1.68168 1.0177-1.68168 1.3664.0.358499999999999 2.05477 1.0121 2.5227 1.0511C8.72222 31.9665 9.10315 33.5603 9.10315 33.5939 9.10315 33.9689 8.72167 33.9576 8.486 34.2926l1.24914.5212L10.4695 34.8553h.1053C10.9983 34.8553 10.7598 34.435 11.7309 34.435V34.1197C11.7309 33.6408 12.278 33.5939 12.7867 33.5958l.2011-.5291L12.9983 33.1942 15.515 33.0686C15.016 32.3232 14.6546 32.6482 14.325 32.0513 14.0114 31.4832 13.4168 31.7069 12.782 31.2818 12.782 30.2305 12.319 29.8365 12.3378 29.4919l.1288-1.1532C12.382 28.2797 12.2072 28.1283 12.1513 28.1283c-.824100000000001.0-.2704 1.0825-1.1561 1.1562C10.9202 28.9628 10.764 28.2768 10.6388 27.9591 10.4752 27.5432 10.1048 26.97 10.0492 26.762 9.08167 26.7834 9.22149 28.5362 8.99808 29.4948zM9.72887 30.0039 9.90574 28.8241C9.99745 28.6404 10.1155 28.6404 10.2598 28.8241l.5899 1.5339C10.6715 30.5472 10.2749 30.393 9.72887 30.0039zm.78983 3.3382C10.2979 33.0991 10.1947 32.7972 10.2093 32.4363 10.3415 32.2592 10.6286 32.2887 10.9382 32.348L11.7554 32.8561C11.7241 33.2721 11.2567 33.3973 10.5187 33.3421z" fill="#004098"/><path fill-rule="evenodd" clip-rule="evenodd" d="M51.9885 33.6993V34.3299c0 5.2585-3.17930000000001 9.2469-5.91 11.8535-1.3322 1.2718-3.4999 2.8137-5.1609 3.7737C39.9739 50.5023 35.4376 52.7164 35.0658 53.0397 36.0811 52.955 40.731 50.4472 41.6846 49.8831c1.955-1.1563 3.9762-2.6465 5.5476-4.2278 1.9673-1.9792 2.7189-3.1585 4.0205-5.7544C51.7894 38.8307 52.0841 37.548 52.3302 36.1432 52.6476 34.3321 52.3038 33.2949 52.3038 31.5969c.6999 1.0072 1.3664 4.0723 1.3664 5.8863V37.7985c0 3.2203-1.1856 5.5045-2.3483 7.6372C50.7765 46.4366 49.9618 47.5688 49.2744 48.4336 48.8909 48.9162 47.0344 50.8062 46.9433 51.1476c1.2618-.6678 3.8692-4.1778 4.7727-5.528 1.1701-1.7492 2.4799-4.9535 2.4799-7.8211V37.2731C54.1959 36.0927 53.9403 34.5573 53.6316 33.633 53.3207 32.7024 52.5598 31.1933 52.409 30.5458 53.1336 31.0313 54.74 33.809 55.1754 34.8219 55.8956 36.4979 56.4032 38.3926 56.4032 40.7415c0 2.0593-.6008 4.5254-1.1981 6.0546C54.8545 47.6937 54.5284 48.4349 54.1253 49.29 53.8473 49.8792 52.9436 51.1829 52.8294 51.673 53.4541 51.2548 55.0327 47.9923 55.4251 47.0163 56.0385 45.49 56.8236 43.2249 56.8236 41.1619V39.5855C56.8236 37.676 55.9479 34.8971 55.2453 33.7009 54.7409 32.8415 54.3565 32.1748 53.7755 31.3869 53.4936 31.0046 52.1648 29.551 52.0935 29.2845 53.0152 29.5306 55.8954 32.2438 56.5279 33.049c1.4437 1.838 2.1117 2.9439 2.9115 5.3921C60.0842 40.4145 60.2291 43.4812 59.8304 45.8508 59.6102 47.1605 59.4244 48.1015 59.136 49.2556 58.9257 50.0966 58.2417 51.8938 58.19 52.514 59.2471 51.2978 60.5024 45.2731 60.5024 42.6336V42.4233c0-2.0546-.5794-4.6348-1.2614-5.9912C58.7796 35.5143 58.5354 34.9528 57.9797 34.1197 57.406 33.2593 56.8884 32.8212 56.3401 32.0805c-1.0438-1.4095-6.9361-5.5779-8.8712-5.7389C47.8555 26.678 48.7635 27.0732 49.276 27.4774 49.6766 27.793 50.3644 28.604 50.6448 29.0514 51.3706 30.2109 51.9885 31.848 51.9885 33.6993z" fill="#004098"/><path fill-rule="evenodd" clip-rule="evenodd" d="M29.4947 56.1927C32.3667 56.1927 34.7779 55.3719 37.1649 55.3491 39.5206 55.3266 42.7386 54.8801 42.7386 57.7694h2.5227c.0625-2.802 3.0538-2.5183 5.6798-2.4216C53.3807 55.4379 55.6002 56.1927 58.4002 56.1927h1.8917l1.3648-.1218-1.7765-1.6707L59.9768 54.3007C57.5009 54.3007 55.9061 54.2419 53.9989 53.6566 52.8282 53.2977 49.9928 52.4089 48.6247 52.4089H47.3634C45.7499 52.4089 44.222 53.8424 44.1049 55.2467 43.4351 54.7561 43.6138 53.1461 41.5415 52.5547 40.0964 52.1421 38.3512 52.487 37.0394 52.806 33.5531 53.654 32.6017 54.3007 28.0233 54.3007L28.1174 54.3958l-1.7409 1.7271L27.7054 56.217 29.4947 56.1927z" fill="#004098"/><path fill-rule="evenodd" clip-rule="evenodd" d="M19.5094 43.1592c0-3.3668 1.2011-7.4694 2.3475-9.7403.6892-1.3648 1.4249-2.6632 2.2774-3.8191.9102-1.2342 1.8191-2.0938 2.7597-3.2313 1.2977-1.5689 5.1774-3.9335 7.2248-4.8628 2.5364-1.1511 6.3054-2.1013 9.9863-2.1013 7.1519.0 13.4748 3.4209 17.054 7.0161 3.5202 3.5362 7.3315 9.6505 7.3315 16.6335v1.997c0 6.4457-3.9962 13.5276-7.4449 16.5203C56.8392 65.222 51.8998 68.4909 44.1051 68.4909c-13.2264.0-24.5957-10.8458-24.5957-23.8602V43.1592zm-4.8351-3.7841v1.9971C14.6743 43.27 15.4544 46.0906 16.0908 47.4186c1.0391 2.1677 1.7032 2.8981 2.893 4.675.0 3.6581.154400000000003 5.3644 1.1981 8.0516C20.9923 62.2313 22.3517 64.4557 23.7928 65.8892 26.773 68.8535 30.7865 71.644 36.6424 71.644H37.3782C38.6575 71.644 39.7945 71.4397 40.855 71.2317 41.4483 71.1155 43.8143 70.2776 43.895 70.2776 44.261 70.2776 46.2699 71.0556 46.9669 71.1999 48.0848 71.4308 49.3219 71.644 50.6219 71.644H51.3577C56.5236 71.644 61.8983 68.7257 64.2413 65.9229 67.4989 62.0265 69.0163 59.1745 69.0163 52.0936 69.577 51.2563 70.2701 50.507 70.8671 49.5295 71.4543 48.5676 71.8771 47.5424 72.2878 46.4308 73.3227 43.6311 73.301 42.0364 73.3261 39.1651 73.3645 34.6779 70.1327 28.9211 67.5866 27.0352c-2.0673-1.5312-2.7333-2.3795-5.4444-3.4899C61.1466 23.1378 59.6738 23.0113 59.1145 22.1586 58.4883 21.2034 57.9062 20.434 57.1127 19.6405 54.3633 16.8913 50.1627 14.0436 44.7358 14.0436H42.949c-3.5628.0-7.7872 1.9581-9.7941 3.5549C31.9714 18.5398 30.6684 19.7071 29.7665 20.9372c-2.0169 2.7505-1.132 1.3429-4.0563 2.6708-3.6111 1.6398-5.0983 2.9881-7.4909 5.8581-1.6435 1.9711-3.545 6.318-3.545 9.909z" fill="#004098"/><path fill-rule="evenodd" clip-rule="evenodd" d="M44.0001 20.7925c12.7823.0 23.2074 10.4251 23.2074 23.2076.0 12.7824-10.4251 23.2075-23.2074 23.2075-12.7825.0-23.2076-10.4251-23.2076-23.2075.0-12.7825 10.4251-23.2076 23.2076-23.2076zm0 1.0268c12.2167.0 22.1807 9.9639 22.1807 22.1808C66.1808 56.2169 56.2168 66.1809 44.0001 66.1809 31.7832 66.1809 21.8192 56.2169 21.8192 44.0001c0-12.2169 9.964-22.1808 22.1809-22.1808z" fill="#004098"/><path d="M28.9356 40.8941V36.0282H28.1819C28.0761 36.3235 27.8811 36.5819 27.5968 36.8034 27.3125 37.0248 27.0492 37.1753 26.8068 37.2546V38.0975C27.2673 37.9455 27.6673 37.7108 28.0067 37.3934v3.5007H28.9356zM32.0895 40.9801C32.6162 40.9801 33.0437 40.784 33.3721 40.3917 33.7005 39.9994 33.8646 39.3603 33.8646 38.4744 33.8646 37.6039 33.7071 36.9786 33.3919 36.5984 33.0768 36.2183 32.6735 36.0282 32.182 36.0282 31.7303 36.0282 31.3584 36.1786 31.0664 36.4794 30.7744 36.7802 30.6284 37.1764 30.6284 37.6678 30.6284 38.1394 30.7667 38.5223 31.0432 38.8165 31.3198 39.1107 31.6487 39.2578 32.03 39.2578 32.3804 39.2578 32.6724 39.1223 32.906 38.8512 32.8685 39.4066 32.7826 39.7724 32.6481 39.9487 32.5137 40.125 32.3506 40.2132 32.1589 40.2132 32.0068 40.2132 31.8845 40.1691 31.792 40.0809 31.6994 39.9928 31.6421 39.8573 31.6201 39.6743L30.7209 39.7735C30.787 40.1746 30.9369 40.476 31.1705 40.6776 31.4041 40.8793 31.7104 40.9801 32.0895 40.9801zM32.1887 38.5769C32.0035 38.5769 31.8493 38.5036 31.7259 38.357 31.6024 38.2105 31.5407 37.9807 31.5407 37.6678 31.5407 37.3593 31.5975 37.1372 31.711 37.0017 31.8245 36.8662 31.9672 36.7984 32.1391 36.7984 32.3198 36.7984 32.479 36.881 32.6167 37.0463 32.7545 37.2116 32.8233 37.4441 32.8233 37.7438 32.8233 38.0171 32.7622 38.2243 32.6399 38.3653 32.5176 38.5063 32.3672 38.5769 32.1887 38.5769zm4.2678 2.3999C37.0163 40.9768 37.4538 40.763 37.7689 40.3355 38.0003 40.0225 38.116 39.6666 38.116 39.2677 38.116 38.7895 37.9727 38.4006 37.6862 38.1008 37.3998 37.8011 37.0505 37.6513 36.6383 37.6513 36.4224 37.6513 36.2108 37.7031 36.0037 37.8066L36.1491 36.9835h1.752V36.1141H35.445L34.969 38.6364 35.7227 38.7455C35.9342 38.5096 36.1733 38.3917 36.44 38.3917 36.6538 38.3917 36.8273 38.4661 36.9607 38.6149 37.094 38.7636 37.1606 38.9868 37.1606 39.2843 37.1606 39.6016 37.0934 39.8391 36.959 39.9967 36.8246 40.1542 36.6604 40.233 36.4664 40.233 36.2968 40.233 36.1469 40.1719 36.0169 40.0495 35.8869 39.9272 35.8086 39.7614 35.7822 39.552L34.8566 39.6479C34.9117 40.0534 35.0803 40.3763 35.3624 40.6165 35.6444 40.8567 36.0092 40.9768 36.4565 40.9768zM40.5922 40.9801C41.066 40.9801 41.4456 40.8402 41.731 40.5603 42.0164 40.2804 42.1591 39.9168 42.1591 39.4694 42.1591 39.1983 42.0891 38.9592 41.9492 38.7521 41.8092 38.5449 41.6048 38.3873 41.336 38.2794 41.5475 38.1868 41.7117 38.0529 41.8285 37.8777 41.9453 37.7025 42.0037 37.5025 42.0037 37.2777 42.0037 36.9163 41.8764 36.6177 41.6219 36.3819 41.3674 36.1461 41.0098 36.0282 40.5492 36.0282 40.0842 36.0282 39.7255 36.1461 39.4732 36.3819 39.2209 36.6177 39.0947 36.9163 39.0947 37.2777 39.0947 37.4893 39.1493 37.6838 39.2583 37.8612 39.3674 38.0386 39.5421 38.178 39.7823 38.2794 39.5024 38.3984 39.2975 38.5675 39.1674 38.7868 39.0374 39.0061 38.9724 39.2468 38.9724 39.5091 38.9724 39.9851 39.1454 40.3597 39.4914 40.633 39.7845 40.8644 40.1514 40.9801 40.5922 40.9801zM40.5492 37.9323C40.3751 37.9323 40.2357 37.8805 40.131 37.7769 40.0264 37.6733 39.974 37.529 39.974 37.3438 39.974 37.1697 40.0269 37.0298 40.1327 36.924S40.3806 36.7653 40.5591 36.7653C40.731 36.7653 40.8693 36.8177 40.974 36.9224 41.0787 37.027 41.131 37.1664 41.131 37.3405 41.131 37.5257 41.0781 37.6706 40.9723 37.7752 40.8666 37.8799 40.7255 37.9323 40.5492 37.9323zM40.5757 40.233C40.3795 40.233 40.2159 40.1614 40.0848 40.0181 39.9536 39.8749 39.8881 39.6755 39.8881 39.4198 39.8881 39.2369 39.9437 39.0672 40.055 38.9107 40.1663 38.7543 40.3354 38.676 40.5624 38.676 40.7586 38.676 40.9205 38.7449 41.0484 38.8826 41.1762 39.0204 41.2401 39.2027 41.2401 39.4297 41.2401 39.6898 41.1773 39.8887 41.0517 40.0264 40.9261 40.1641 40.7674 40.233 40.5757 40.233z" fill="#004098"/><path fill-rule="evenodd" clip-rule="evenodd" d="M48.8151 10.4079C48.8151 9.44725 50.2758 7.83212 51.0225 7.99018L50.8979 9.03868C50.9031 9.14393 51.0883 9.5902 51.1275 9.67196L51.9108 9.08015 51.9683 9.46191C51.9683 9.99307 51.7992 10.0202 51.7582 10.5129L50.0104 9.7903 50.6751 11.5336 50.0765 11.564C49.5101 11.564 48.8151 10.9979 48.8151 10.4079zm3.2585-5.3608C52.0736 5.33347 51.4962 6.57413 51.3384 7.27543L50.6019 7.25451C50.0969 7.26888 50.2823 7.74594 49.7611 7.8852 50.0658 7.30934 50.1415 6.52869 50.431 6.03256 50.866 5.28665 51.3747 5.37107 51.5479 4.62673 51.3656 4.53917 51.0818 4.41668 50.8122 4.41668 50.2212 4.41668 50.3333 5.99311 48.7101 5.99311 48.314 5.99311 48.5113 5.92417 48.0279 5.90693l.2652.58517 1.0474.13171C49.3327 6.72021 48.8115 8.02023 48.7304 8.22088 48.5489 8.67001 47.7397 8.83121 47.1334 8.83121L47.0247 8.85443 46.0823 8.72614C45.6474 9.30117 45.4627 9.42946 45.4517 9.77721 45.6633 10.2188 45.616 10.618 46.2924 10.618L46.4005 10.642 47.5537 10.5129C47.5537 11.333 47.8098 11.1671 48.0113 11.7372c.3127.8851-.1738.5215.768500000000003.9811L48.7101 11.3539H48.9201C49.0265 11.8096 49.1822 12.2997 49.7611 12.2997H50.4968c.6096.0 1.065-.2584 1.4469.129800000000001C52.2684 12.76 52.2885 13.2457 52.9143 13.2457 53.2119 13.2457 53.6503 12.9121 53.6503 12.615V12.405c0-.923499999999999-1.2614-1.1592-1.2614-1.4717C52.3889 10.5889 52.8027 9.90551 52.8002 9.24605 52.7978 8.69535 52.0696 8.52604 51.6471 8.30263L51.8633 7.8852C52.7737 7.8852 52.6518 7.58317 53.1936 7.32345 53.7665 7.04888 54.2645 7.14114 54.2807 6.41348 53.557 6.245 53.1207 6.05606 52.8036 5.46462L53.0196 5.0471C52.8529 4.7001 52.7986 4.31134 52.2837 4.31134 51.7041 4.31134 52.0736 4.82655 52.0736 5.0471zM52.5749 6.12528C52.3886 6.16813 52.0754 6.78104 52.1692 6.99976 52.2627 7.21819 52.9809 6.99976 52.9809 6.99976S53.2307 6.74998 52.9498 6.50021C52.81 6.28316 52.7615 6.08269 52.5749 6.12528z" fill="#004098"/><path fill-rule="evenodd" clip-rule="evenodd" d="M61.7378 12.5625C61.0648 12.5625 60.796 12.0607 60.4764 11.8268c-.0852999999999966.3672-.2102.3538-.2102.7357C60.2662 13.0532 60.5115 13.2983 61.0021 13.2983L61.3303 13.3024 61.2122 13.7187C60.8289 13.6162 60.6303 13.2983 60.3714 13.2983H60.2662C59.5548 13.2983 59.0228 13.577 58.3932 13.7378 57.4707 13.9731 57.8207 14.4008 57.1574 14.8763L57.113 15.821C57.3027 15.948 57.2977 16.031 57.5333 16.031 58.3681 16.031 59.0089 15.085 59.3204 15.085 59.7097 15.085 59.7951 15.1877 59.9508 15.4004 59.6428 15.8213 59.3204 16.0601 59.3204 16.8721 59.3204 17.2613 59.4228 17.3467 59.6358 17.5028 60.2243 17.0714 60.2243 15.5791 61.1562 15.514L60.8968 17.0821C60.8394 17.4175 61.5155 17.7128 61.8429 17.7128 62.1637 17.7128 62.2671 17.6119 62.3899 17.4897 62.374 16.8282 62.507 16.1669 62.7889 15.5057 62.8414 15.1705 62.4035 14.6412 62.2603 14.6466L61.3504 14.7205 62.2886 13.3487 62.3675 13.4495 64.8933 13.5015 64.8714 13.606 65.0339 13.2546l-1.0887-.9024C63.9191 12.6658 63.8695 12.8779 63.5246 12.8779H63.2093C62.8074 12.8779 63.1711 12.91 62.8939 12.7726 62.9286 12.643 65.0736 10.1513 63.7349 10.0398 63.6257 10.5082 62.0673 12.5625 61.7378 12.5625zM64.9963 11.1962V11.8268C64.9963 12.0625 65.0793 12.0575 65.2006 12.2448L65.1013 12.5625C65.3291 12.7149 65.4511 12.8779 65.837 12.8779 66.4484 12.8779 66.3849 12.6391 66.573 12.2472 65.9605 11.0901 66.1532 11.3749 65.1013 10.6705 65.0464 10.9062 64.9963 10.9122 64.9963 11.1962zM59.758 14.3096C59.4793 13.9752 60.1207 13.8913 60.4274 13.8913 60.734 13.8913 60.7064 13.8913 60.6225 14.2819 60.5389 14.6722 60.0371 14.6443 59.758 14.3096z" fill="#004098"/><path fill-rule="evenodd" clip-rule="evenodd" d="M10.1308 43.9515l.1578 1.9079L10.1928 45.8681 10.1849 45.7733C10.1732 45.6301 10.1507 45.5326 10.118 45.4812 10.0856 45.4299 10.0427 45.3955 9.99158 45.3777 9.9396 45.36 9.81343 45.3594 9.61453 45.3777L7.90179 45.536C7.58824 45.5651 7.38344 45.6095 7.28547 45.669 7.18823 45.7286 7.11146 45.8184 7.05321 45.9392 6.99569 46.0599 6.97431 46.2072 6.9886 46.382 7.0051 46.5821 7.0615 46.7486 7.15874 46.8813 7.25561 47.0147 7.3816 47.109 7.53699 47.165 7.69248 47.2212 7.95608 47.2324 8.3276 47.1979L9.75407 47.066C9.91085 47.0516 10.0214 47.0234 10.0853 46.9829 10.1494 46.9424 10.1925 46.8943 10.2136 46.8397 10.2465 46.7543 10.2565 46.637 10.2439 46.487L10.3401 46.4782l.1058 1.2788L10.3497 47.7659 10.3435 47.6896C10.3349 47.5862 10.3085 47.5015 10.263 47.4361 10.2179 47.3712 10.1546 47.3262 10.0728 47.303 10.0154 47.2846 9.91582 47.2818 9.77315 47.2951L8.44438 47.4179C8.03313 47.4558 7.73405 47.4545 7.54695 47.4145 7.35985 47.3737 7.18123 47.2497 7.00952 47.0422 6.83818 46.835 6.73624 46.5385 6.70463 46.1552 6.67827 45.8359 6.69809 45.5846 6.76472 45.4023 6.85514 45.1545 6.98215 44.9732 7.14565 44.8586 7.30998 44.7449 7.53681 44.6744 7.82833 44.6473l1.71256-.1584C9.74154 44.4704 9.86568 44.4476 9.91315 44.4189 9.96052 44.3912 9.99573 44.3465 10.0201 44.2851 10.0451 44.2248 10.0496 44.1166 10.0349 43.9603L10.1308 43.9515zm-.58023 5.2318L9.24328 49.2462C9.39904 49.3483 9.51812 49.4526 9.59969 49.5584 9.68227 49.6642 9.73499 49.7849 9.76006 49.9215 9.79011 50.0838 9.77241 50.2282 9.70624 50.3531 9.64098 50.478 9.54743 50.5713 9.42725 50.6332 9.33554 50.6826 9.1524 50.7343 8.8783 50.7907L7.95322 50.9807C7.77008 51.0183 7.65874 51.0593 7.62086 51.1033 7.58225 51.1474 7.56704 51.2265 7.57543 51.3402L7.48427 51.3588l-.23383-1.2711L7.3416 50.0692C7.37137 50.1619 7.42105 50.222 7.49128 50.2505 7.53884 50.2704 7.64676 50.2633 7.81497 50.2288L8.87185 50.0117C9.06697 49.9715 9.18872 49.938 9.23628 49.9121 9.28429 49.885 9.3183 49.8494 9.33895 49.8053 9.36061 49.7609 9.3666 49.716 9.35803 49.6692 9.32983 49.5151 9.19941 49.3933 8.96586 49.3034L7.69275 49.5649C7.51506 49.6012 7.40538 49.642 7.36409 49.6867 7.32307 49.7321 7.30528 49.8024 7.31054 49.9004L7.21957 49.9189l-.23383-1.271L7.07699 48.6291C7.10676 48.7326 7.15275 48.8012 7.21542 48.835 7.25856 48.8574 7.37137 48.8503 7.5545 48.8127L8.89692 48.5372C9.07637 48.5 9.18429 48.4598 9.22217 48.4159 9.26006 48.372 9.27517 48.2928 9.26863 48.1789L9.36245 48.1596 9.55057 49.1833zm1.90013 2.165C11.4779 51.4636 11.4632 51.5714 11.4058 51.6712 11.348 51.7702 11.2657 51.8343 11.1586 51.8625 11.0512 51.8909 10.951 51.875 10.8564 51.8142 10.762 51.7532 10.7015 51.6662 10.6745 51.5529 10.6478 51.4398 10.663 51.3337 10.7197 51.2339 10.7761 51.1343 10.8577 51.0706 10.9651 51.0421 11.0722 51.0139 11.1733 51.0295 11.2687 51.0894 11.3637 51.149 11.424 51.2352 11.4507 51.3483zM10.4004 52.02 8.53848 52.5107C8.37276 52.5543 8.27147 52.6031 8.23562 52.6559 8.19884 52.7089 8.19119 52.7957 8.21212 52.9164L8.12225 52.9399 7.80557 51.5983 7.89571 51.5745C7.92501 51.6835 7.97515 51.7569 8.04437 51.7955 8.09138 51.8206 8.19746 51.811 8.3629 51.7673l1.37237-.3615C9.90089 51.3622 10.0026 51.3141 10.0391 51.2611 10.0749 51.2083 10.083 51.1225 10.0621 51.0037L10.1549 50.9794l.2455 1.0406zM8.53737 54.576l1.50993-1.4605C10.2291 52.9386 10.3393 52.8124 10.3785 52.7369 10.408 52.6817 10.4174 52.6131 10.4073 52.53L10.4974 52.497 10.9165 53.7832 10.8263 53.8159C10.7996 53.7346 10.7675 53.6842 10.7304 53.6651 10.6808 53.6367 10.6317 53.632 10.583 53.6495 10.5222 53.6717 10.4216 53.7509 10.2792 53.8875L9.54974 54.5986 10.3957 54.6467C10.638 54.6611 10.8026 54.6527 10.8911 54.6204 10.9413 54.6023 10.9765 54.5676 10.9956 54.5171 11.0149 54.4667 11.0099 54.3914 10.9812 54.2922L11.0716 54.2593 11.3295 55.0509 11.2391 55.0835C11.2043 55.0114 11.1576 54.9592 11.0975 54.9268 11.0377 54.8952 10.8843 54.8699 10.6371 54.8512L8.5771 54.6977 8.53737 54.576zM11.132 57.8662 10.6345 56.5654C10.3427 56.707 10.139 56.892 10.0242 57.1183 9.93592 57.2909 9.92311 57.4597 9.98606 57.6243 10.0248 57.7257 10.0872 57.8067 10.1719 57.8662 10.2578 57.9263 10.3882 57.9733 10.5632 58.0094L10.5436 58.1176C10.2463 58.0956 10.0167 58.0283 9.85361 57.9164 9.69112 57.8057 9.57066 57.6473 9.49204 57.4423 9.35775 57.0905 9.38365 56.769 9.57093 56.4785 9.72172 56.2448 9.94974 56.0628 10.2555 55.9321 10.6298 55.7722 10.9692 55.7524 11.2734 55.8715 11.5764 55.9909 11.783 56.195 11.8928 56.4823 11.9845 56.7224 11.9717 56.9706 11.8525 57.2272 11.7332 57.4837 11.4933 57.6969 11.132 57.8662zM11.0541 57.1741C11.3125 57.0639 11.4828 56.9738 11.568 56.9021 11.6527 56.8319 11.708 56.7549 11.7334 56.6715 11.7486 56.6237 11.7452 56.5696 11.7227 56.5108 11.6887 56.4225 11.6203 56.3681 11.517 56.3475 11.3373 56.3086 11.1223 56.3421 10.8746 56.4476L10.7902 56.4836l.2639.6905zm1.7078 1.5031L12.2773 58.9496C12.5738 58.9755 12.7866 59.0244 12.9156 59.0957 13.0449 59.1678 13.1356 59.2567 13.1884 59.3615 13.2336 59.4513 13.2443 59.5383 13.2182 59.6219 13.1933 59.7058 13.1325 59.7737 13.0366 59.8278 12.9341 59.885 12.8417 59.9043 12.7591 59.8832 12.6768 59.8628 12.6159 59.8155 12.5786 59.7411 12.5358 59.6561 12.525 59.5671 12.5449 59.4754 12.5653 59.3826 12.5755 59.329 12.5755 59.3155 12.5765 59.2935 12.5721 59.2729 12.5613 59.2514 12.5381 59.2052 12.4994 59.1699 12.4445 59.1467 12.3591 59.1101 12.2601 59.1023 12.147 59.1224 11.9735 59.1532 11.7974 59.2193 11.6187 59.3199l-.4909.2759L11.0003 59.6705C10.9135 59.7191 10.8611 59.7562 10.8422 59.7805 10.8109 59.8236 10.7947 59.8686 10.7949 59.9171 10.7945 59.966 10.8153 60.037 10.8558 60.1296L10.7738 60.1756l-.6137-1.2201L10.2421 58.9095C10.2991 59.0033 10.3581 59.0547 10.4192 59.0649 10.4796 59.0754 10.6032 59.0284 10.7895 58.9233L11.9711 58.2594C12.0929 58.191 12.1681 58.1413 12.195 58.1092 12.2295 58.0687 12.2491 58.028 12.2533 57.9864 12.2582 57.9447 12.2441 57.8827 12.2134 57.8014L12.2977 57.7541 12.7619 58.6772zm1.8218 2.2526L13.8883 61.4017 13.8439 61.3206C14.0035 61.0952 14.0941 60.906 14.1148 60.7553 14.1362 60.604 14.1192 60.4775 14.0631 60.3746 14.0278 60.31 13.9771 60.2674 13.9105 60.2466 13.8439 60.2257 13.7841 60.232 13.7304 60.2649 13.69 60.2895 13.6596 60.3294 13.6404 60.3835 13.6064 60.471 13.5782 60.6771 13.5565 60.9998 13.5348 61.3228 13.4919 61.5526 13.4282 61.6898 13.3642 61.8269 13.2678 61.9343 13.1393 62.013 13.0227 62.0841 12.8918 62.1227 12.7458 62.1301 12.6006 62.1365 12.4663 62.102 12.3455 62.0268 12.2243 61.9508 12.1268 61.8453 12.0526 61.7094 11.9949 61.6033 11.9489 61.4427 11.9147 61.2271 11.9061 61.1699 11.8959 61.1328 11.8863 61.115 11.8581 61.0633 11.7966 61.0424 11.7033 61.0531L11.6605 60.9745 12.3931 60.4768 12.4372 60.5578C12.2786 60.7495 12.1843 60.9376 12.1533 61.1216 12.1221 61.3057 12.137 61.4528 12.1977 61.5636 12.2392 61.6396 12.2951 61.6877 12.3652 61.7097 12.4357 61.7303 12.5026 61.7219 12.5653 61.6835 12.6366 61.6402 12.6857 61.5787 12.7124 61.4988 12.7387 61.4202 12.7604 61.2655 12.7763 61.0369 12.8028 60.6983 12.8391 60.4679 12.8837 60.3456 12.9493 60.1666 13.0559 60.0313 13.2038 59.9412 13.3653 59.8427 13.5437 59.8123 13.7391 59.8508 13.934 59.8881 14.0923 60.0191 14.214 60.2416 14.2794 60.3613 14.3154 60.4948 14.3217 60.6408 14.3225 60.6965 14.3301 60.7382 14.3447 60.765 14.3607 60.7939 14.3784 60.8135 14.399 60.8235 14.4202 60.8342 14.4668 60.8425 14.5396 60.8487L14.5837 60.9298zM16.2182 61.4158C16.2793 61.5153 16.2987 61.6221 16.2752 61.7366 16.2508 61.85 16.1929 61.9388 16.1001 62.0025 16.0076 62.066 15.9078 62.0856 15.7997 62.0606 15.6915 62.0357 15.6074 61.974 15.5473 61.8763 15.4872 61.7783 15.4686 61.6728 15.4917 61.5592 15.5143 61.4453 15.5718 61.357 15.6646 61.2935 15.7571 61.2297 15.8576 61.2099 15.9661 61.2334 16.0742 61.2571 16.1581 61.3178 16.2182 61.4158zM15.4318 62.4122 13.8224 63.5168C13.6793 63.6151 13.5985 63.6962 13.5808 63.7585 13.5625 63.8211 13.5819 63.9058 13.639 64.0127L13.5612 64.0659 12.8488 62.9065 12.9266 62.8529C12.9878 62.9456 13.0577 62.9979 13.135 63.0104 13.1873 63.0183 13.2845 62.9726 13.4277 62.8743l1.1861-.814C14.757 61.962 14.8382 61.8818 14.8565 61.8189 14.8743 61.7567 14.8552 61.6728 14.799 61.5677L14.8792 61.5126l.5526.8996zm1.6457.8872L16.3609 63.8496 16.6987 64.341 16.4912 64.5001 16.1537 64.009 14.9451 64.937C14.8319 65.0237 14.7627 65.0851 14.7376 65.1217 14.7126 65.1583 14.6995 65.1983 14.6982 65.2422 14.6974 65.2855 14.705 65.3189 14.7211 65.3423 14.787 65.4384 14.9187 65.4757 15.116 65.4559L15.1146 65.5572C14.7645 65.6437 14.4973 65.5523 14.3128 65.2839 14.2224 65.1526 14.1804 65.0149 14.1874 64.8709 14.1945 64.727 14.2315 64.6096 14.2995 64.5192 14.3369 64.4685 14.4604 64.3623 14.67 64.2013L15.7276 63.3893 15.5415 63.1186 15.6153 63.062C15.8673 63.1524 16.1067 63.2111 16.334 63.2364 16.5604 63.2623 16.7914 63.2582 17.0271 63.2263L17.0775 63.2994zm-1.3207 3.6621L16.6589 65.1254C16.7958 64.8484 16.8703 64.6666 16.8834 64.5799 16.8967 64.4916 16.8881 64.4077 16.8565 64.3264L16.9307 64.263 17.7405 65.3201 17.6663 65.3835C17.6102 65.3161 17.5601 65.2788 17.5156 65.2698 17.4712 65.261 17.4325 65.2698 17.4004 65.2976 17.3495 65.3409 17.2758 65.4629 17.1804 65.6623L16.7039 66.6329 17.4513 66.3778C17.7179 66.288 17.891 66.2096 17.9708 66.1414 18.0202 66.0991 18.0465 66.0473 18.0494 65.9872 18.0522 65.9272 18.0209 65.8519 17.9564 65.7618L18.0303 65.6983 18.5405 66.364 18.4663 66.4275C18.4099 66.3687 18.3449 66.3358 18.273 66.3298 18.2002 66.3235 18.0086 66.3734 17.6969 66.4802L15.8673 67.106C15.4088 67.2617 15.112 67.3391 14.9787 67.3388 14.7912 67.3372 14.6407 67.2627 14.5279 67.1154 14.4377 66.9976 14.3959 66.8748 14.4043 66.7475 14.4118 66.6195 14.4609 66.5174 14.5508 66.4403 14.6287 66.374 14.7126 66.3441 14.8019 66.3507 14.891 66.3572 14.9645 66.3979 15.0206 66.4711 15.075 66.5425 15.0976 66.6179 15.088 66.6974 15.0781 66.7779 15.0287 66.8573 14.9391 66.9351 14.8894 66.9801 14.8615 67.0148 14.856 67.0389 14.8492 67.0626 14.8552 67.0853 14.8712 67.1062 14.8973 67.1404 14.9445 67.1603 15.013 67.1653 15.1128 67.1736 15.2926 67.1306 15.552 67.0344L15.7568 66.9615zm4.4768 1.1511C20.3874 68.2641 20.494 68.4473 20.5525 68.662 20.6108 68.8766 20.6061 69.0958 20.5379 69.3183 20.4707 69.5409 20.3555 69.7442 20.1927 69.9287 19.9582 70.1944 19.699 70.354 19.4137 70.4062 19.0688 70.471 18.7608 70.3694 18.4894 70.1019 18.2228 69.8393 18.1048 69.5375 18.1354 69.1987 18.1654 68.8591 18.2957 68.5596 18.5249 68.3 18.7616 68.0314 19.0417 67.8704 19.3643 67.8156 19.6877 67.7613 19.9775 67.8603 20.2336 68.1126zM20.116 68.2623C20.0512 68.1986 19.9738 68.1699 19.8821 68.1764 19.7904 68.1818 19.6708 68.2529 19.5229 68.3906 19.374 68.5277 19.1815 68.7311 18.944 69.0004 18.8178 69.143 18.7093 69.2852 18.6171 69.4267 18.5474 69.5357 18.5139 69.6368 18.5157 69.7306 18.517 69.8252 18.5471 69.9007 18.6051 69.9582 18.662 70.0141 18.7245 70.0436 18.7913 70.0483 18.881 70.0509 18.97 70.0201 19.0579 69.9545 19.1945 69.8532 19.4335 69.6097 19.7742 69.2235 19.9744 68.9968 20.0995 68.8288 20.1504 68.7206 20.2011 68.6122 20.2199 68.5158 20.2077 68.4309 20.1995 68.3702 20.1688 68.3146 20.116 68.2623zm1.9158 2.0436L20.9514 71.6666C20.8469 71.7982 20.7952 71.8926 20.7949 71.9495 20.7961 72.0384 20.8559 72.1316 20.9724 72.2288L20.9128 72.304 19.8192 71.3342 19.8787 71.259C19.9631 71.3314 20.0313 71.3734 20.0815 71.3862 20.1306 71.3983 20.176 71.3933 20.2163 71.3716 20.2558 71.3494 20.3176 71.2862 20.4023 71.1793l1.0803-1.3604L21.2122 69.5794 21.3755 69.374 21.6456 69.6136 21.7603 69.4689 21.8366 69.3685C21.9963 69.1674 22.1995 69.061 22.4454 69.0508 22.6917 69.0401 22.9334 69.1409 23.1711 69.3518 23.3344 69.4965 23.4298 69.635 23.4572 69.769 23.4847 69.9031 23.4671 70.0094 23.4052 70.0875 23.3551 70.1504 23.2877 70.1831 23.202 70.1866 23.1168 70.1891 23.0337 70.1544 22.9529 70.0828 22.884 70.0217 22.8446 69.9548 22.8341 69.8808 22.8242 69.8077 22.837 69.7481 22.8739 69.7016 22.8835 69.6893 22.9081 69.6671 22.9467 69.6345 22.9707 69.6157 22.9911 69.5958 23.0082 69.5744 23.0314 69.5451 23.0405 69.5164 23.0361 69.4882 23.0317 69.449 23.0139 69.416 22.9835 69.3888 22.9449 69.3547 22.9 69.3429 22.8474 69.3539 22.7952 69.3646 22.739 69.4064 22.6805 69.4801L22.3931 69.8508 22.1948 70.1006 22.4689 70.3438 22.3058 70.5491 22.0318 70.3059zm4.1595 1.3309L25.5439 72.6677 25.4564 72.6029C25.5841 72.3189 25.6189 72.0401 25.5612 71.7658 25.5027 71.4923 25.3809 71.2869 25.1941 71.1485 25.0498 71.0419 24.9088 70.998 24.7703 71.0176 24.6321 71.0362 24.5276 71.0991 24.4571 71.2055 24.4131 71.2721 24.3881 71.3436 24.3834 71.4178 24.3774 71.5182 24.397 71.6365 24.4425 71.7716 24.4761 71.8706 24.5718 72.0716 24.729 72.3751 24.9496 72.7994 25.0669 73.1325 25.0812 73.3747 25.0948 73.6161 25.0353 73.8366 24.9023 74.0372 24.734 74.2912 24.495 74.4403 24.1869 74.485 23.8781 74.5292 23.5789 74.4448 23.2908 74.2314 23.2004 74.1645 23.1207 74.0908 23.053 74.0121 22.9859 73.9328 22.9088 73.8209 22.8226 73.6775 22.7745 73.5973 22.7283 73.5414 22.6849 73.5093 22.6479 73.4818 22.5992 73.4674 22.5389 73.4674 22.4777 73.4667 22.414 73.4878 22.3481 73.5304L22.2701 73.4724 23.0306 72.3247 23.1087 72.3824C22.9572 72.7516 22.9138 73.0855 22.9794 73.3872 23.0442 73.6884 23.1789 73.915 23.3841 74.0665 23.5426 74.1838 23.6989 74.2311 23.8533 74.2097 24.008 74.1885 24.1255 74.1169 24.2055 73.996 24.2532 73.9241 24.2813 73.8411 24.2896 73.7467 24.2975 73.6534 24.2857 73.5489 24.2519 73.434 24.2183 73.3188 24.141 73.144 24.0184 72.9086 23.8472 72.5788 23.7354 72.3239 23.6845 72.1436 23.6328 71.9628 23.6161 71.7909 23.6328 71.6274 23.6493 71.4641 23.7044 71.311 23.7987 71.1686 23.9589 70.9267 24.1804 70.7827 24.4615 70.7364 24.7426 70.6913 25.0112 70.7633 25.2667 70.9526 25.3603 71.0218 25.443 71.1001 25.5149 71.1887 25.5693 71.2563 25.6286 71.3494 25.691 71.4685 25.7547 71.5874 25.8057 71.6619 25.8436 71.6895 25.8804 71.717 25.9175 71.7261 25.9541 71.718 25.9917 71.7105 26.0492 71.6673 26.1275 71.5897L26.1913 71.6368zM26.9098 75.7255 26.9492 75.8235C26.746 75.9628 26.5445 76.0383 26.345 76.0471 26.1459 76.0568 25.9622 76.0121 25.7953 75.9141 25.5121 75.7485 25.3456 75.5034 25.2949 75.18 25.2435 74.856 25.3015 74.5355 25.4668 74.2202 25.6267 73.9153 25.8439 73.6921 26.1194 73.5503 26.4518 73.3807 26.781 73.3908 27.1073 73.5819 27.326 73.7101 27.4694 73.87 27.5373 74.0626 27.6055 74.2543 27.6016 74.4218 27.5261 74.5655 27.4785 74.6562 27.415 74.7142 27.3338 74.738 27.2536 74.7615 27.1708 74.7481 27.0864 74.6988 26.9976 74.6468 26.9404 74.5726 26.9142 74.4762 26.8887 74.38 26.9113 74.2481 26.9811 74.0806 27.0253 73.9751 27.0396 73.8917 27.0261 73.8314 27.0122 73.771 26.9821 73.7276 26.9351 73.7002 26.8625 73.6577 26.7792 73.6621 26.6856 73.7132 26.5422 73.7904 26.4048 73.9557 26.2715 74.2097 26.1616 74.4197 26.0874 74.6403 26.0499 74.8694 26.0123 75.0993 26.0239 75.2932 26.0852 75.4517 26.132 75.5687 26.212 75.6607 26.3248 75.7268 26.3993 75.7702 26.479 75.7934 26.5647 75.7958 26.6506 75.7979 26.7651 75.7741 26.9098 75.7255zM29.333 73.468C29.433 73.5218 29.5005 73.6043 29.5341 73.7156 29.5669 73.8267 29.5585 73.9343 29.5083 74.0386 29.4581 74.1426 29.381 74.2121 29.2758 74.2475 29.1703 74.2831 29.0683 74.2744 28.9698 74.2215 28.8714 74.1684 28.8055 74.0866 28.7715 73.9761S28.7454 73.7588 28.7956 73.6545C28.8457 73.5505 28.9233 73.4802 29.0283 73.4434 29.1334 73.4066 29.2345 73.4149 29.333 73.468zM29.1234 74.7465 28.2522 76.5537C28.1749 76.7144 28.1432 76.8273 28.1573 76.8905 28.1712 76.9545 28.2279 77.0177 28.3279 77.0799L28.2858 77.1674 27.1201 76.5396 27.1621 76.4521C27.2591 76.5002 27.3445 76.5085 27.4174 76.4784 27.4663 76.4576 27.5289 76.3666 27.6063 76.206L28.2485 74.8741C28.3258 74.7133 28.3582 74.6008 28.3446 74.5368 28.3305 74.4735 28.2744 74.4109 28.1759 74.3495L28.2192 74.2596 29.1234 74.7465zm2.0256 2.2017L29.9096 76.4453C29.8085 76.7677 29.7975 77.0514 29.8759 77.2944 29.9352 77.4804 30.0431 77.6053 30.1999 77.669 30.2965 77.7082 30.3953 77.7153 30.4943 77.6904 30.5943 77.6648 30.7158 77.5961 30.86 77.4856L30.9217 77.5745C30.7036 77.7892 30.5003 77.9209 30.3119 77.9705 30.1244 78.0207 29.9326 78.0058 29.7372 77.9267 29.402 77.7905 29.1974 77.5514 29.124 77.2084 29.0652 76.9325 29.0947 76.6321 29.2128 76.3068 29.3575 75.9081 29.5752 75.6323 29.8649 75.4786 30.1544 75.3258 30.4363 75.3051 30.7104 75.4164 30.9389 75.5092 31.102 75.6884 31.1981 75.9554 31.2942 76.2227 31.2783 76.5535 31.149 76.9482zM30.6171 76.5362C30.7169 76.2617 30.7707 76.0683 30.7793 75.9536 30.7882 75.8402 30.7728 75.7449 30.7323 75.6686 30.7095 75.6241 30.6698 75.5902 30.614 75.5672 30.5295 75.5333 30.4454 75.5489 30.3608 75.6147 30.2111 75.7271 30.0875 75.9162 29.9918 76.1795L29.9592 76.2695 30.6171 76.5362zm2.2513-.1952L32.7717 76.6556C32.9319 76.5613 33.0756 76.5015 33.2028 76.4774 33.3305 76.4526 33.4557 76.462 33.5811 76.5051 33.7298 76.5563 33.8407 76.6425 33.9121 76.7643 33.9837 76.885 34.0158 77.017 34.0085 77.158 34.0049 77.2666 33.9592 77.461 33.8726 77.742L33.5816 78.689C33.5239 78.8766 33.5038 78.9994 33.5217 79.0555 33.5395 79.1128 33.5978 79.1653 33.6958 79.2126L33.667 79.3058 32.5018 78.9058 32.5306 78.8123C32.6217 78.8301 32.6959 78.8131 32.7534 78.7622 32.7929 78.7277 32.8393 78.6247 32.8922 78.4523L33.225 77.3702C33.2864 77.1702 33.3178 77.0415 33.3191 76.9851 33.3201 76.9273 33.3073 76.8787 33.2806 76.8383 33.2543 76.7967 33.22 76.7692 33.1771 76.7544 33.0358 76.706 32.8721 76.7677 32.6844 76.9398L32.2837 78.2433C32.2275 78.4254 32.2082 78.5464 32.2249 78.6062 32.2426 78.6665 32.2923 78.717 32.3759 78.7593L32.3472 78.8526 31.1822 78.4526 31.2107 78.359C31.3107 78.3818 31.3899 78.3727 31.4482 78.3308 31.4876 78.3021 31.5367 78.1941 31.5942 78.0066L32.0169 76.6321C32.0733 76.4482 32.0924 76.3288 32.0743 76.2726 32.0564 76.2164 31.9981 76.1639 31.9006 76.1147L31.9302 76.0189 32.8684 76.341zm3.4902 2.875L36.4223 79.2985C36.2629 79.4918 36.0891 79.623 35.8995 79.6896 35.7106 79.7567 35.5225 79.7675 35.3365 79.722 35.0211 79.6452 34.7972 79.4581 34.664 79.1619 34.5302 78.8656 34.5023 78.5406 34.5791 78.1892 34.653 77.8496 34.8038 77.5718 35.0316 77.355 35.307 77.0953 35.626 77.0093 35.9894 77.0979 36.2331 77.1575 36.4129 77.2693 36.5281 77.4347 36.6438 77.599 36.6838 77.761 36.6488 77.9214 36.6266 78.0222 36.5806 78.0964 36.5085 78.1432 36.4377 78.1892 36.3546 78.2004 36.2606 78.1774 36.1616 78.1534 36.0874 78.0988 36.037 78.0137 35.9876 77.9287 35.975 77.7952 35.9983 77.6139 36.0132 77.4997 36.0054 77.4153 35.9763 77.3613 35.9473 77.3072 35.9074 77.2745 35.8549 77.2618 35.7738 77.2419 35.695 77.2706 35.6184 77.3469 35.5006 77.4629 35.4117 77.6617 35.3498 77.9449 35.2989 78.1787 35.285 78.4123 35.309 78.6433 35.3326 78.8755 35.3942 79.0582 35.4946 79.1929 35.5701 79.292 35.6712 79.3568 35.7968 79.3876 35.8794 79.4077 35.9622 79.407 36.0453 79.3839 36.1284 79.361 36.2321 79.3048 36.3586 79.216zM39.0521 79.0213 37.7448 78.7775C37.7038 79.1143 37.744 79.3952 37.865 79.6177 37.9566 79.7886 38.0852 79.8894 38.2506 79.9203 38.3525 79.9391 38.4507 79.926 38.5435 79.8819 38.637 79.8367 38.7438 79.7447 38.8656 79.607L38.9419 79.6821C38.7666 79.9368 38.591 80.1069 38.4149 80.1936 38.2399 80.2806 38.0492 80.3049 37.8428 80.2665 37.4893 80.2004 37.2453 80.007 37.1113 79.6852 37.0039 79.426 36.9786 79.1253 37.0357 78.7822 37.106 78.3616 37.2698 78.0468 37.5264 77.8375 37.7829 77.6293 38.056 77.5523 38.3449 77.6061 38.586 77.651 38.7786 77.7939 38.9213 78.0369 39.0637 78.2796 39.1078 78.6078 39.0521 79.0213zM38.4554 78.7243C38.504 78.4342 38.5221 78.2339 38.5097 78.1195 38.498 78.0063 38.4656 77.916 38.412 77.8491 38.3817 77.8102 38.3368 77.7848 38.2775 77.7736 38.1887 77.7571 38.1087 77.7897 38.0377 77.8713 37.9112 78.0118 37.8239 78.2224 37.7775 78.5001L37.7618 78.595 38.4554 78.7243zM41.8477 80.2024C41.5349 80.4556 41.2611 80.5732 41.0267 80.5557 40.8891 80.5455 40.7775 80.4896 40.6932 80.387 40.6077 80.285 40.5709 80.1614 40.5803 80.018 40.5931 79.8231 40.6832 79.6539 40.8522 79.5099 41.0213 79.3659 41.3797 79.1846 41.9294 78.9657L41.9464 78.7086C41.9592 78.5155 41.9573 78.3938 41.9404 78.3421 41.9244 78.2901 41.8894 78.2435 41.8371 78.2022 41.7841 78.1609 41.7235 78.1377 41.6548 78.1325 41.5428 78.1245 41.4485 78.1445 41.3726 78.1913 41.3265 78.2209 41.3011 78.2572 41.2982 78.301 41.2956 78.3392 41.3173 78.3885 41.3609 78.4489 41.421 78.532 41.4495 78.6101 41.4448 78.6827 41.4388 78.7721 41.4022 78.8452 41.3353 78.904 41.2676 78.9618 41.1835 78.9873 41.0821 78.98 40.9737 78.9719 40.8852 78.9299 40.8167 78.8554 40.748 78.781 40.7164 78.6974 40.7224 78.6049 40.7312 78.4735 40.7887 78.3522 40.8946 78.2401 41.0012 78.1283 41.1441 78.0471 41.3236 77.9956 41.5033 77.9452 41.688 77.9271 41.8774 77.941 42.1068 77.958 42.2842 78.0228 42.4114 78.1351 42.5376 78.2485 42.6168 78.3656 42.6484 78.4889 42.6682 78.5669 42.668 78.7441 42.6497 79.0189L42.5842 80.0096C42.5766 80.1262 42.576 80.2001 42.5829 80.2308 42.5896 80.261 42.6006 80.2843 42.6173 80.3007 42.633 80.3159 42.6528 80.3248 42.6748 80.3263 42.72 80.3297 42.768 80.2997 42.819 80.2359L42.8916 80.3067C42.7971 80.4355 42.7014 80.527 42.6051 80.5805 42.5091 80.6343 42.4023 80.6573 42.285 80.6487 42.1473 80.6385 42.042 80.5962 41.9691 80.5225 41.896 80.4486 41.8552 80.3417 41.8477 80.2024zM41.8607 80.0032 41.9174 79.1485C41.7006 79.2624 41.5362 79.3892 41.4252 79.5287 41.3507 79.6224 41.3108 79.7188 41.304 79.8187 41.2984 79.9025 41.322 79.9783 41.375 80.0468 41.415 80.0993 41.4733 80.128 41.5509 80.1338 41.6373 80.14 41.7403 80.0962 41.8607 80.0032zm2.4927-1.9478L44.3588 78.3862C44.4811 78.2417 44.5987 78.1359 44.7118 78.0692 44.8247 78.0019 44.9462 77.9679 45.0778 77.9653 45.2341 77.9624 45.3658 78.0058 45.4708 78.0964 45.5755 78.1861 45.6464 78.2997 45.6832 78.4356 45.7132 78.5396 45.7297 78.7392 45.7347 79.0344L45.7511 80.03C45.7542 80.2273 45.773 80.3504 45.8076 80.3974 45.8418 80.4452 45.9131 80.4747 46.0202 80.486L46.0218 80.5839 44.797 80.6067 44.7954 80.5084C44.8871 80.4938 44.9517 80.4522 44.9904 80.3843 45.017 80.3381 45.0293 80.2247 45.0264 80.0436L45.0076 78.9058C45.0042 78.6955 44.994 78.5631 44.9781 78.5092 44.9611 78.4544 44.934 78.4128 44.8963 78.3836 44.8587 78.3536 44.8179 78.3392 44.7728 78.3402 44.6243 78.3428 44.4882 78.4575 44.3638 78.6851L44.3866 80.0553C44.3897 80.2469 44.4085 80.3679 44.4427 80.4188 44.4783 80.4695 44.5405 80.5 44.6327 80.5116L44.6342 80.6096 43.4094 80.632 43.4077 80.5341C43.5092 80.521 43.5811 80.4851 43.6234 80.4253 43.6519 80.3846 43.665 80.2657 43.6619 80.0687L43.6378 78.6237C43.6347 78.4304 43.6159 78.311 43.5816 78.2639 43.5471 78.2169 43.4761 78.1874 43.3687 78.1746L43.3671 78.0738 44.3534 78.0554zm4.1752-1.4863L48.8682 79.4929C48.8912 79.6904 48.91 79.8064 48.9247 79.8414 48.9448 79.8989 48.9764 79.9401 49.0182 79.9636 49.0603 79.9874 49.13 79.9974 49.2265 79.9924L49.2369 80.0813 48.2459 80.4227 48.1992 80.0201C48.0955 80.1918 47.9998 80.3125 47.9107 80.3804 47.8227 80.4494 47.718 80.4912 47.5985 80.5066 47.2915 80.5466 47.0326 80.4331 46.8207 80.1661 46.6485 79.9494 46.5433 79.6703 46.5033 79.3283 46.4717 79.0545 46.4879 78.804 46.5521 78.5753 46.6156 78.3478 46.7196 78.1688 46.861 78.0374 47.0037 77.9067 47.1638 77.8305 47.3419 77.8075 47.4569 77.7926 47.5615 77.8025 47.6563 77.8381 47.7506 77.8738 47.8556 77.9442 47.97 78.0479L47.8812 77.2819C47.8587 77.088 47.8373 76.9723 47.8177 76.9344 47.7906 76.8853 47.7553 76.8502 47.7111 76.8296 47.667 76.81 47.5884 76.8068 47.4749 76.8215L47.4619 76.7076 48.5286 76.5691zM48.0095 78.3854C47.8522 78.144 47.6829 78.0361 47.4995 78.0598 47.4355 78.0682 47.3859 78.0926 47.3487 78.134 47.2921 78.1988 47.2519 78.3039 47.2281 78.451 47.204 78.5973 47.209 78.816 47.2429 79.1081 47.2801 79.4289 47.3294 79.6624 47.3921 79.8106 47.4548 79.9588 47.5283 80.063 47.6134 80.1215 47.657 80.1507 47.7124 80.1607 47.7816 80.1516 47.9319 80.1322 48.0605 79.9893 48.1647 79.7215L48.0095 78.3854zm5.0306-2.7226L53.2541 76.6423 53.1636 76.6645C53.0597 76.4511 52.9648 76.3034 52.8781 76.2211 52.7908 76.1378 52.6835 76.0816 52.5559 76.0513 52.4851 76.0341 52.3699 76.0458 52.2105 76.0848L51.9555 76.1469 52.5648 78.9362C52.605 79.1211 52.6398 79.2342 52.6691 79.2761 52.6989 79.3176 52.7456 79.3484 52.8091 79.3694 52.8736 79.391 52.9541 79.3897 53.0516 79.3659L53.1652 79.3382 53.1866 79.4364 51.3951 79.8736 51.3738 79.7754 51.4874 79.7476C51.5864 79.7234 51.6624 79.6847 51.7144 79.6327 51.7531 79.5974 51.7782 79.5462 51.7899 79.479 51.7996 79.4326 51.7847 79.3184 51.745 79.1363L51.1357 76.347 50.8875 76.4077C50.6576 76.4639 50.5009 76.5558 50.4194 76.6849 50.3042 76.8643 50.2571 77.0927 50.2764 77.3689L50.1808 77.3921 49.9671 76.4126 53.0401 75.6628zm2.5569 1.6927L54.3147 77.7186C54.4122 78.0424 54.5609 78.2785 54.7594 78.4264 54.9109 78.5403 55.0677 78.5743 55.2299 78.5283 55.33 78.5001 55.4136 78.4445 55.48 78.3627 55.5469 78.2798 55.6069 78.1487 55.6621 77.9697L55.7614 78.0034C55.7044 78.3127 55.6133 78.5456 55.4884 78.7028 55.3642 78.8599 55.2012 78.9669 54.9987 79.0242 54.6521 79.1224 54.3534 79.0561 54.1034 78.8241 53.9025 78.6373 53.7593 78.376 53.6739 78.0395 53.5694 77.6272 53.5921 77.2688 53.7408 76.9644 53.8899 76.6611 54.1068 76.469 54.3903 76.3888 54.6267 76.3218 54.8581 76.3656 55.0847 76.5219 55.311 76.6783 55.4821 76.9558 55.597 77.3555zM54.9376 77.3529C54.8655 77.0687 54.8017 76.8787 54.7448 76.7807 54.6891 76.6833 54.6233 76.6159 54.5484 76.5791 54.5052 76.5573 54.454 76.5545 54.396 76.571 54.309 76.5955 54.2495 76.6608 54.2179 76.7664 54.1593 76.9503 54.1643 77.1799 54.2335 77.4527L54.257 77.5454 54.9376 77.3529zM58.0809 77.0734 58.1773 77.1042C58.1475 77.3586 58.0727 77.57 57.951 77.7374 57.8298 77.9047 57.6793 78.0249 57.5011 78.0973 57.1991 78.2197 56.9143 78.1971 56.6473 78.0301 56.3795 77.8637 56.1843 77.6105 56.062 77.274 55.944 76.9485 55.9217 76.6295 55.9959 76.3149 56.0869 75.9369 56.3058 75.677 56.6541 75.5356 56.8877 75.441 57.0959 75.4275 57.279 75.4964 57.4617 75.5643 57.5805 75.6751 57.6364 75.8288 57.6714 75.9253 57.6725 76.0142 57.6374 76.0955 57.6032 76.1754 57.5403 76.2339 57.4502 76.2705 57.3553 76.3089 57.2649 76.3076 57.1782 76.2668 57.0922 76.2255 57.0112 76.1224 56.9344 75.9583 56.8864 75.8548 56.8354 75.7895 56.7826 75.7618 56.7299 75.7341 56.6795 75.7305 56.629 75.7509 56.5517 75.7825 56.5012 75.8527 56.4782 75.9612 56.4419 76.1271 56.4735 76.3444 56.5721 76.6157 56.6536 76.8398 56.7656 77.0415 56.9075 77.2192 57.0501 77.3976 57.198 77.5126 57.3525 77.5651 57.4671 77.6024 57.5855 77.5967 57.7059 77.5478 57.7851 77.5157 57.8533 77.466 57.91 77.3978 57.9667 77.3299 58.0231 77.2218 58.0809 77.0734z" fill="#004098"/><path fill-rule="evenodd" clip-rule="evenodd" d="M58.1985 73.6288l.6359 1.3194C58.89 74.7527 58.953 74.6012 59.0254 74.4941 59.0972 74.3861 59.1869 74.3044 59.2931 74.2471 59.4285 74.1743 59.5641 74.1526 59.6991 74.1816 59.8345 74.2114 59.9445 74.2728 60.0283 74.365 60.1129 74.4577 60.2177 74.6342 60.3435 74.8946L60.7724 75.7845C60.8563 75.9584 60.9245 76.0591 60.9756 76.0849 61.0274 76.1118 61.1029 76.1058 61.2022 76.0669L61.2442 76.1544 60.1504 76.7435 60.1082 76.656C60.1799 76.6028 60.2217 76.5395 60.2342 76.4645 60.2415 76.4081 60.206 76.2973 60.1266 76.1324L59.6364 75.1159C59.5456 74.927 59.4815 74.8126 59.4439 74.772 59.4076 74.7319 59.366 74.707 59.32 74.6981 59.2739 74.6884 59.2304 74.6953 59.1886 74.7178 59.1272 74.7507 59.0781 74.8055 59.0416 74.8818 59.0037 74.9576 58.9788 75.0707 58.9647 75.2188L59.5539 76.4407C59.6326 76.6038 59.6934 76.6992 59.7354 76.7268 59.7917 76.7668 59.8687 76.7684 59.9657 76.7328L60.0077 76.8201 58.9138 77.4092 58.8717 77.3219C58.9574 77.2632 59.007 77.1976 59.0204 77.1244 59.0292 77.0746 58.9919 76.9625 58.908 76.7885l-1.1166-2.3167C57.7083 74.2994 57.6415 74.2001 57.5911 74.1738 57.5411 74.1484 57.4646 74.1539 57.3632 74.1929L57.3195 74.1022 58.1985 73.6288zM61.4964 73.2586 61.6482 73.5478C61.692 73.3597 61.7487 73.2079 61.819 73.0932 61.8888 72.9775 61.9807 72.887 62.0959 72.8197 62.2329 72.7395 62.3682 72.7126 62.5012 72.7405 62.6336 72.7674 62.7468 72.8327 62.8392 72.9343 62.9122 73.0115 63.0154 73.1794 63.1507 73.4376L63.6076 74.3086C63.698 74.481 63.7693 74.5803 63.8205 74.6048 63.8723 74.6299 63.9483 74.6208 64.0478 74.5774L64.0928 74.6631 63.0211 75.2909 62.9761 75.2052C63.0506 75.1467 63.0896 75.078 63.0934 74.9989 63.0963 74.9448 63.0569 74.8384 62.9738 74.6801L62.4518 73.6847C62.3554 73.5011 62.2874 73.389 62.2496 73.3493 62.2104 73.3093 62.1678 73.286 62.1215 73.2789 62.0751 73.2711 62.0325 73.2787 61.9932 73.302 61.8632 73.378 61.7942 73.5468 61.7853 73.8093L62.4139 75.008C62.5017 75.1755 62.5722 75.2731 62.6252 75.3009 62.6789 75.328 62.7475 75.3241 62.834 75.2885L62.879 75.3743 61.8075 76.0021 61.7624 75.9164C61.8461 75.8545 61.8937 75.7871 61.9047 75.7133 61.9118 75.6632 61.8705 75.5517 61.7801 75.3795L61.117 74.1153C61.0284 73.9462 60.959 73.8501 60.9075 73.8258 60.8563 73.8012 60.7802 73.8106 60.68 73.8521L60.6337 73.7641 61.4964 73.2586zM64.091 71.5658C64.2634 71.4384 64.4551 71.366 64.6657 71.3503 64.8766 71.3347 65.0783 71.3851 65.2702 71.5019 65.4623 71.6176 65.6264 71.7788 65.7633 71.9855 65.9605 72.2832 66.0543 72.5845 66.0431 72.8904 66.0316 73.2604 65.8736 73.5577 65.5694 73.7826 65.2711 74.0035 64.9672 74.063 64.66 73.9609 64.352 73.8589 64.1019 73.6623 63.9091 73.3715 63.7098 73.0707 63.6191 72.7478 63.6353 72.4027 63.6523 72.0571 63.8043 71.778 64.091 71.5658zM64.2052 71.7187C64.1327 71.7723 64.0899 71.8462 64.0771 71.9423 64.063 72.0383 64.1041 72.1767 64.2006 72.3586 64.2966 72.5407 64.4447 72.7823 64.6445 73.0838 64.7503 73.2437 64.8596 73.3856 64.9712 73.5102 65.0576 73.6047 65.1441 73.6607 65.2314 73.6782 65.3191 73.6964 65.3951 73.6813 65.4605 73.6329 65.5243 73.5857 65.5644 73.5277 65.5828 73.4592 65.6039 73.3672 65.5935 73.2688 65.5514 73.1643 65.4858 73.0018 65.3102 72.7042 65.0236 72.2718 64.8554 72.0176 64.7261 71.8533 64.6365 71.7783 64.5466 71.7031 64.4611 71.6638 64.3802 71.6586 64.3224 71.6547 64.2647 71.6749 64.2052 71.7187zm1.3462-2.6447 1.8532 2.5068C67.5095 71.7229 67.5929 71.8008 67.6532 71.814 67.7139 71.8279 67.7919 71.7999 67.8868 71.7313L67.944 71.8083 66.9139 72.6592 66.8566 72.5819C66.9389 72.5092 66.9821 72.4312 66.987 72.3486 66.9899 72.2929 66.9382 72.1945 66.8331 72.0524L65.2899 69.9643C65.1854 69.823 65.1036 69.7459 65.043 69.7321 64.9821 69.7182 64.9053 69.7462 64.811 69.8144L64.7517 69.7342 65.5514 69.074zM67.4588 68.675C67.6125 68.5235 67.7928 68.4237 67.9997 68.3772 68.2063 68.3304 68.4125 68.3508 68.6178 68.4383 68.8235 68.5245 69.0071 68.6602 69.1698 68.8446 69.4045 69.1105 69.5369 69.395 69.5662 69.6994 69.6036 70.0676 69.486 70.3853 69.2145 70.6527 68.9484 70.9153 68.6552 71.0188 68.3375 70.9629 68.0193 70.9075 67.7455 70.7494 67.5164 70.4898 67.2794 70.2212 67.1469 69.9149 67.1176 69.5706 67.0892 69.226 67.2028 68.9274 67.4588 68.675zM67.5918 68.8096C67.5273 68.8734 67.4947 68.9527 67.4944 69.0499 67.4931 69.1468 67.5521 69.278 67.6716 69.4437 67.7906 69.61 67.9691 69.8275 68.2066 70.0968 68.3328 70.2394 68.4592 70.3638 68.5865 70.4709 68.6845 70.5519 68.7775 70.5945 68.8662 70.5989 68.9554 70.6041 69.0288 70.5781 69.0871 70.5206 69.144 70.4644 69.1761 70.4009 69.1853 70.3306 69.1939 70.2363 69.1709 70.1402 69.1153 70.0429 69.029 69.8917 68.8158 69.6229 68.4752 69.2368 68.2751 69.0099 68.1253 68.8662 68.0266 68.8051 67.9281 68.7439 67.8382 68.7176 67.7572 68.7244 67.6995 68.7288 67.6448 68.7573 67.5918 68.8096zm2.1523-2.4593L70.3108 65.7301 70.5157 65.9391 70.1933 66.2917C70.3134 66.2897 70.4099 66.3012 70.4822 66.3268 70.5778 66.3634 70.6625 66.42 70.7356 66.4945 70.8594 66.6212 70.9344 66.7678 70.9584 66.9337 70.9838 67.0999 70.964 67.272 70.9012 67.4497 70.838 67.6279 70.7628 67.7653 70.6737 67.8627 70.6669 67.8701 70.5914 67.9461 70.4487 68.089 70.3946 68.1481 70.3677 68.2165 70.3683 68.2938 70.3677 68.3711 70.3931 68.4362 70.444 68.488 70.4885 68.5334 70.542 68.553 70.6037 68.546 70.6656 68.5389 70.733 68.4947 70.8072 68.4133L71.1152 68.0694C71.3671 67.7938 71.5682 67.6329 71.7206 67.5872 71.935 67.5205 72.126 67.5709 72.2906 67.7391 72.3961 67.8468 72.4609 67.979 72.4847 68.136 72.5093 68.292 72.4905 68.4469 72.4293 68.6001 72.3356 68.8318 72.1882 69.0578 71.9867 69.2782 71.8358 69.4437 71.6821 69.5793 71.5269 69.6845 71.3721 69.7899 71.2404 69.845 71.1322 69.8491 71.0248 69.8523 70.9412 69.8241 70.8814 69.7631 70.8241 69.7046 70.7928 69.6299 70.7894 69.5382 70.7855 69.4471 70.8247 69.3235 70.906 69.1688 70.6705 69.2581 70.4819 69.2307 70.3401 69.086 70.2549 68.999 70.2034 68.8791 70.1867 68.7267 70.1692 68.5749 70.1997 68.3933 70.2784 68.1813 70.0563 68.2952 69.8601 68.3403 69.6885 68.3184 69.5176 68.2956 69.3669 68.2173 69.2365 68.0843 69.0661 67.9103 68.9854 67.6864 68.9954 67.412 69.0045 67.1383 69.1153 66.8854 69.326 66.6547 69.4377 66.5324 69.5774 66.4308 69.7441 66.3503zM69.4755 66.7346C69.4061 66.8104 69.3833 66.912 69.4086 67.039 69.4333 67.1655 69.5599 67.3455 69.7883 67.5785 69.9733 67.7674 70.1238 67.8717 70.2403 67.8892 70.357 67.9082 70.4472 67.8821 70.5117 67.8116 70.584 67.7324 70.6091 67.632 70.589 67.5103 70.5689 67.387 70.46 67.2253 70.2629 67.0238 70.0404 66.7968 69.8619 66.6719 69.7272 66.6487 69.6286 66.6299 69.5448 66.6586 69.4755 66.7346zm1.8291 2.0916C71.1826 68.9601 71.1124 69.0599 71.094 69.1241 71.064 69.2391 71.0823 69.3292 71.1478 69.3961 71.2113 69.4612 71.3036 69.4813 71.4264 69.4557 71.5487 69.4311 71.7077 69.3117 71.9031 69.098 72.0701 68.9154 72.178 68.7486 72.2268 68.5971 72.2762 68.4464 72.2598 68.3284 72.1764 68.2434 72.1454 68.2115 72.1101 68.1951 72.0714 68.193 72.0011 68.1904 71.9272 68.2176 71.8483 68.2758 71.7691 68.3328 71.5878 68.5164 71.3046 68.8262zm1.8074-2.694L71.2252 65.5811C70.9405 65.4973 70.7568 65.4578 70.6737 65.4622 70.5893 65.467 70.5133 65.4934 70.4448 65.543L70.3706 65.4796 71.1805 64.4222 71.2547 64.4857C71.2041 64.5578 71.1797 64.6176 71.1808 64.6655 71.1818 64.713 71.1981 64.7512 71.2304 64.7788 71.2811 64.8222 71.4094 64.8731 71.6137 64.9301L72.6112 65.2211 72.2196 64.5014C72.0811 64.2445 71.9725 64.082 71.8927 64.0138 71.8433 63.9713 71.7901 63.9548 71.7338 63.9642 71.6777 63.9739 71.6145 64.0219 71.5444 64.1077L71.4702 64.0442 71.9803 63.3783 72.0545 63.4417C72.0119 63.5123 71.9948 63.5867 72.0042 63.6619 72.0136 63.7384 72.0996 63.9264 72.2631 64.2263L73.2228 65.9877C73.4621 66.4293 73.5953 66.72 73.6228 66.8577 73.6604 67.0523 73.6228 67.2232 73.5099 67.3706 73.4198 67.4881 73.3148 67.5571 73.1951 67.5748 73.0752 67.5937 72.9704 67.5641 72.8803 67.4871 72.8027 67.4204 72.7577 67.34 72.7452 67.2461 72.7326 67.1527 72.7551 67.0685 72.8114 66.9951 72.8659 66.924 72.9313 66.8848 73.0065 66.8786 73.0832 66.872 73.1671 66.9065 73.2575 66.9828 73.3095 67.0249 73.3474 67.0466 73.3709 67.0471 73.3945 67.0492 73.414 67.0385 73.4303 67.0173 73.4563 66.9834 73.4647 66.9306 73.455 66.8585 73.4422 66.7537 73.3649 66.5768 73.2221 66.3283L73.112 66.1322zM73.1645 61.2923C73.2698 61.0998 73.4146 60.9487 73.5996 60.8403 73.7843 60.7319 73.9869 60.6875 74.2078 60.7076 74.428 60.7267 74.6411 60.7996 74.8479 60.9258 75.1457 61.1076 75.3513 61.3385 75.4634 61.6207 75.6011 61.9614 75.5765 62.3013 75.391 62.6412 75.2089 62.9746 74.9573 63.164 74.6378 63.2087 74.318 63.2541 74.0126 63.1875 73.7218 63.0099 73.4209 62.8265 73.2095 62.5743 73.0862 62.2543 72.9636 61.9334 72.9898 61.6129 73.1645 61.2923zM73.3291 61.3798C73.285 61.4608 73.2759 61.5468 73.3025 61.6398 73.3281 61.7331 73.4206 61.8402 73.5809 61.9616 73.7406 62.084 73.9715 62.2368 74.273 62.4207 74.4332 62.5184 74.5887 62.5981 74.7399 62.6613 74.856 62.7086 74.9568 62.7204 75.0427 62.6973 75.1295 62.6749 75.1925 62.6268 75.2321 62.5539 75.2711 62.4829 75.2844 62.4121 75.2737 62.342 75.2559 62.249 75.2073 62.1644 75.1271 62.0887 75.0028 61.9708 74.7246 61.7792 74.2921 61.5154 74.0379 61.3603 73.8551 61.2693 73.7437 61.2411 73.6325 61.2132 73.5392 61.2157 73.464 61.2474 73.4099 61.2693 73.3655 61.3134 73.3291 61.3798zM74.7643 58.8955l1.4837.8337C76.3917 59.8099 76.4897 59.8438 76.5424 59.8324 76.6244 59.8128 76.6983 59.7316 76.7642 59.5907L76.846 59.6369 76.1758 60.9691 76.0938 60.9229C76.1435 60.8207 76.1683 60.7415 76.1695 60.6873 76.1704 60.6337 76.1565 60.5877 76.128 60.5506 76.0993 60.5143 76.0277 60.4636 75.9114 60.3983l-1.4836-.8337L74.2621 59.8935 74.0382 59.7676 74.2038 59.4387 74.046 59.3501 73.9371 59.2918C73.7179 59.1688 73.5774 58.9807 73.5167 58.7288 73.4556 58.4764 73.4987 58.2053 73.6444 57.9158 73.7443 57.717 73.8527 57.5894 73.9711 57.5333 74.0894 57.4771 74.1916 57.4732 74.2764 57.521 74.3452 57.5594 74.3896 57.6226 74.4105 57.7104 74.4306 57.7979 74.4157 57.8912 74.3663 57.9892 74.324 58.0733 74.2705 58.1279 74.2041 58.1543 74.1383 58.1797 74.0805 58.1791 74.0298 58.1504 74.0165 58.1431 73.9909 58.1222 73.9528 58.089 73.9303 58.0681 73.9076 58.0511 73.8843 58.038 73.8522 58.02 73.824 58.0166 73.7987 58.0268 73.7631 58.0398 73.7364 58.0649 73.7179 58.1021 73.6941 58.1491 73.6926 58.1979 73.7135 58.2499 73.7343 58.3019 73.7847 58.3513 73.865 58.3964L74.2679 58.6164 74.5403 58.7695 74.7083 58.4354 74.9325 58.5613 74.7643 58.8955zm.7226-5.5732L76.6147 53.8038 76.5768 53.9026C76.2543 53.8513 75.9757 53.8936 75.7406 54.03 75.5068 54.1659 75.3398 54.3628 75.2415 54.62 75.1595 54.835 75.1425 55.0563 75.1911 55.2856 75.2398 55.515 75.3419 55.7118 75.4997 55.875 75.7009 56.0849 75.9491 56.2531 76.2448 56.3796 76.5358 56.5039 76.8162 56.5781 77.0853 56.6024 77.3546 56.6267 77.5819 56.5828 77.7677 56.4687 77.954 56.3555 78.0966 56.1666 78.1977 55.9025 78.2803 55.6859 78.3119 55.4688 78.2908 55.2501 78.2703 55.0317 78.1886 54.7762 78.0454 54.4823L78.3265 54.6025C78.443 54.8768 78.5047 55.1368 78.51 55.382 78.5159 55.6284 78.4655 55.89 78.3587 56.1698 78.2186 56.5363 78.0239 56.8331 77.7758 57.0585 77.5276 57.2841 77.2434 57.4185 76.9236 57.4625 76.6033 57.5048 76.2955 57.4643 76.0014 57.3386 75.6907 57.2059 75.4292 56.9946 75.2165 56.7032 75.0033 56.4127 74.8755 56.089 74.8338 55.7316 74.7914 55.3739 74.8335 55.0311 74.9591 54.703 75.0514 54.4614 75.1985 54.2268 75.4004 53.9997 75.5175 53.8683 75.5846 53.7821 75.6011 53.7398 75.6214 53.686 75.6204 53.6311 75.5979 53.5752 75.5754 53.5192 75.5256 53.4678 75.4493 53.4211L75.4869 53.3223zM76.0392 52.2483 77.386 52.6563C77.2886 52.4802 77.2266 52.3282 77.2021 52.1994 77.1765 52.0701 77.1809 51.9449 77.2138 51.8236 77.2557 51.6693 77.333 51.5499 77.4453 51.4652 77.5581 51.3811 77.6758 51.338 77.7967 51.3356 77.9187 51.3339 78.1121 51.373 78.378 51.4535L79.2864 51.7289C79.4641 51.7826 79.5801 51.7984 79.6331 51.7766 79.6867 51.755 79.7339 51.6925 79.7749 51.5891L79.8641 51.6163 79.5257 52.8637 79.4364 52.8366C79.4484 52.7449 79.433 52.6694 79.3899 52.6088 79.3559 52.5644 79.2548 52.5163 79.0865 52.4653L78.0491 52.1507C77.8563 52.0922 77.7335 52.0638 77.6796 52.0651 77.6272 52.0656 77.5816 52.0811 77.5443 52.1106 77.5059 52.1398 77.4808 52.1779 77.468 52.2255 77.4489 52.2955 77.4534 52.3707 77.4814 52.4509 77.508 52.5319 77.5691 52.6284 77.6621 52.7402L78.9094 53.1182C79.0761 53.1686 79.1832 53.1867 79.2312 53.1729 79.2971 53.1569 79.3507 53.0984 79.3922 52.9991L79.4816 53.0262 79.1432 54.2735 79.0539 54.2466C79.0716 54.1403 79.0604 54.0569 79.0186 53.9968 78.9901 53.9561 78.8872 53.9083 78.7098 53.8545L76.3451 53.1378C76.169 53.0845 76.0549 53.0684 76.0024 53.0895 75.9507 53.1107 75.9023 53.1739 75.86 53.2787L75.7675 53.2504 76.0392 52.2483zM76.8039 49.9724C76.8253 49.8559 76.8817 49.7647 76.9737 49.6999 77.0657 49.6359 77.1658 49.6148 77.2745 49.6369 77.3828 49.6591 77.4673 49.7185 77.5286 49.8159 77.59 49.9131 77.6101 50.0192 77.589 50.1336 77.5681 50.2483 77.512 50.3376 77.4207 50.4027 77.3296 50.4678 77.23 50.4892 77.1216 50.4669 77.0132 50.4447 76.9277 50.3852 76.8653 50.2885 76.8031 50.1921 76.7827 50.0871 76.8039 49.9724zM78.0245 49.8328 79.9082 50.2198C80.0757 50.2543 80.1869 50.2553 80.2406 50.2234 80.2951 50.1918 80.337 50.1166 80.3659 49.998L80.4569 50.0168 80.2074 51.374 80.1161 51.3552C80.1332 51.2437 80.1173 51.1546 80.07 51.0888 80.0373 51.0448 79.9373 51.0065 79.7698 50.972L78.3817 50.6867C78.2139 50.6522 78.1029 50.6504 78.0483 50.682 77.9947 50.7139 77.9532 50.7881 77.9244 50.9051L77.8307 50.8857 78.0245 49.8328zM78.2583 48.1148 78.5682 48.1608C78.4524 48.0106 78.372 47.8713 78.3273 47.743 78.2818 47.6146 78.2693 47.4823 78.2877 47.3446 78.3093 47.1808 78.3704 47.0502 78.4715 46.9548 78.5716 46.8594 78.6889 46.8033 78.8217 46.7861 78.9235 46.7711 79.1126 46.785 79.389 46.8261L80.3223 46.9648C80.507 46.9921 80.6248 46.9917 80.6742 46.9632 80.7244 46.9347 80.7631 46.865 80.7903 46.755L80.8821 46.7686 80.7115 48.0508 80.6198 48.0372C80.6204 47.9393 80.5916 47.8651 80.5342 47.8141 80.4952 47.7791 80.3913 47.7486 80.2215 47.7232L79.1552 47.5649C78.9583 47.5356 78.8328 47.5257 78.7801 47.5338 78.7263 47.5427 78.6831 47.5646 78.65 47.5993 78.616 47.6338 78.5961 47.6744 78.5899 47.7217 78.5692 47.877 78.6552 48.037 78.8483 48.2023L80.1324 48.3931C80.3118 48.4197 80.4279 48.4192 80.4809 48.3912 80.5337 48.3622 80.5721 48.3018 80.5972 48.2076L80.6892 48.2212 80.5186 49.5034 80.4266 49.4899C80.4303 49.3817 80.408 49.3009 80.3589 49.2477 80.3252 49.2114 80.2162 49.1792 80.0315 49.1518L78.6774 48.9506C78.4961 48.9237 78.3819 48.9247 78.3325 48.9532 78.2831 48.9817 78.2445 49.0514 78.2155 49.1612L78.1209 49.1473l.1374-1.0325zM80.9387 44.9818C81.1728 45.3167 81.279 45.608 81.2586 45.8555 81.2467 46.0007 81.1918 46.1175 81.093 46.205 80.9953 46.2936 80.8777 46.3304 80.7421 46.3179 80.558 46.3009 80.3994 46.2026 80.2661 46.0216 80.1329 45.8405 79.9675 45.4586 79.7702 44.8739L79.5273 44.8514C79.3449 44.8344 79.2297 44.8342 79.1804 44.8511 79.131 44.8673 79.0863 44.9034 79.0463 44.958 79.0064 45.0134 78.9833 45.0769 78.9773 45.1495 78.9674 45.2676 78.9849 45.3677 79.028 45.4486 79.0549 45.498 79.0889 45.5255 79.1304 45.5294 79.1665 45.5325 79.2136 45.5108 79.2715 45.4654 79.3512 45.4035 79.4254 45.3747 79.4941 45.381 79.5785 45.3888 79.6472 45.4288 79.7016 45.5006 79.7549 45.5731 79.7778 45.6624 79.769 45.7692 79.7593 45.8839 79.718 45.9767 79.6465 46.0477 79.5748 46.1191 79.4951 46.1509 79.4079 46.1431 79.2838 46.1316 79.1701 46.0684 79.0659 45.9547 78.9619 45.8401 78.8875 45.6877 78.842 45.497 78.7976 45.3062 78.7835 45.1108 78.7999 44.9107 78.8201 44.6688 78.8843 44.4825 78.9927 44.3501 79.1022 44.2184 79.2146 44.1369 79.3316 44.1055 79.4061 44.0862 79.5736 44.0895 79.8332 44.1133L80.7693 44.2001C80.8793 44.2103 80.9493 44.2121 80.9781 44.2053 81.007 44.1986 81.0293 44.1875 81.0449 44.1703 81.0596 44.1539 81.0685 44.1329 81.0703 44.1097 81.0742 44.0622 81.0465 44.0109 80.9872 43.9558L81.0557 43.8806C81.1759 43.9824 81.2605 44.0851 81.3096 44.1881 81.359 44.2902 81.3788 44.4036 81.3687 44.5274 81.3566 44.6727 81.3146 44.7832 81.2435 44.8589 81.1725 44.935 81.0705 44.9763 80.9387 44.9818zM80.7503 44.9646 79.943 44.8898C80.0469 45.1208 80.1637 45.2966 80.2941 45.4166 80.3816 45.4967 80.472 45.5409 80.5661 45.5495 80.6455 45.5568 80.7174 45.5336 80.7832 45.4787 80.8336 45.4374 80.8618 45.3763 80.8686 45.2942 80.8762 45.2031 80.8364 45.0933 80.7503 44.9646z" fill="#004098"/><path fill-rule="evenodd" clip-rule="evenodd" d="M44 0C68.2342.0 88 19.7657 88 44S68.2342 88 44 88C19.7657 88 0 68.2343.0 44 0 19.7657 19.7657.0 44 0zm0 2.3192C66.957 2.3192 85.6807 21.043 85.6807 44S66.957 85.6808 44 85.6808C21.0429 85.6808 2.3192 66.957 2.3192 44 2.3192 21.043 21.0429 2.3192 44 2.3192z" fill="#004098"/></svg>